<svg width="149" height="33" viewBox="0 0 149 33" fill="none" xmlns="http://www.w3.org/2000/svg">
<path fill-rule="evenodd" clip-rule="evenodd" d="M142.2 1.21558C143.815 1.21558 145.278 1.87036 146.337 2.929C147.395 3.98764 148.05 5.45014 148.05 7.06558V7.06558V25.9656C148.05 27.581 147.395 29.0435 146.337 30.1022C145.278 31.1608 143.815 31.8156 142.2 31.8156V31.8156H6.30001C4.68458 31.8156 3.22208 31.1608 2.16344 30.1022C1.1048 29.0435 0.450012 27.581 0.450012 25.9656V25.9656V7.06558C0.450012 5.45014 1.1048 3.98764 2.16344 2.929C3.22208 1.87036 4.68458 1.21558 6.30001 1.21558V1.21558H142.2Z" stroke="white" stroke-width="0.9"/>
<mask id="mask0_4780_1796" style="mask-type:luminance" maskUnits="userSpaceOnUse" x="0" y="0" width="149" height="33">
<path fill-rule="evenodd" clip-rule="evenodd" d="M6.3 0.765625H142.2C145.679 0.765625 148.5 3.58623 148.5 7.06563V25.9656C148.5 29.445 145.679 32.2656 142.2 32.2656H6.3C2.82061 32.2656 0 29.445 0 25.9656V7.06563C0 3.58623 2.82061 0.765625 6.3 0.765625Z" fill="white"/>
</mask>
<g mask="url(#mask0_4780_1796)">
<path fill-rule="evenodd" clip-rule="evenodd" d="M151.56 -5.53442V37.5139H65.1824L83.9338 -5.53442H151.56ZM97.9016 14.2656C95.971 14.2656 94.2324 15.4746 93.5024 17.3247L90.9149 23.8828L90.9017 23.9337C90.8885 24.0355 90.9519 24.1331 91.0479 24.159L91.0984 24.1656L91.3044 24.161C93.1518 24.0784 94.7936 22.8905 95.4974 21.1064L98.0851 14.5483L98.0983 14.4974C98.1114 14.3956 98.0481 14.298 97.9522 14.2722L97.9016 14.2656ZM102.8 14.2661L102.804 14.2659L102.809 14.2657L102.814 14.2656C102.829 14.2656 102.843 14.2673 102.857 14.2684C103.543 14.2924 104.174 14.5431 104.684 14.9514C105.259 14.4908 105.987 14.2289 106.776 14.2698C108.355 14.3514 109.658 15.6646 109.789 17.3121C109.823 17.7395 109.779 18.1515 109.671 18.535L109.612 18.7244L108.624 21.2272C108.002 22.8306 106.602 23.9313 105.007 24.1321L104.807 24.1525L104.803 24.1592H104.702L104.599 24.1637L104.495 24.1656L104.498 24.1592H102.561C102.533 24.1592 102.513 24.1295 102.522 24.1015C102.742 23.4695 103.195 22.9517 103.786 22.687C104.375 22.4231 104.921 21.9163 105.213 21.3213L105.286 21.157L106.836 17.287C106.934 17.043 106.824 16.8451 106.59 16.8451C106.393 16.8452 106.17 16.9866 106.046 17.1795L106 17.2651L104.561 20.4742C104.477 20.6619 104.275 20.7668 104.073 20.7107C103.858 20.6511 103.738 20.4247 103.775 20.2026L103.797 20.1199L104.804 17.2651C104.877 17.0559 104.797 16.8867 104.62 16.8517L104.549 16.8451H104.529C104.332 16.8452 104.108 16.9866 103.985 17.1795L103.938 17.2651L102.5 20.4742C102.416 20.6619 102.214 20.7668 102.011 20.7107C101.796 20.6511 101.676 20.4247 101.713 20.2026L101.735 20.1199L102.742 17.2651C102.834 17.0209 102.717 16.828 102.481 16.834C102.272 16.8394 102.039 17.0003 101.925 17.2074L101.888 17.287L100.338 21.157C100.147 21.6333 100.159 22.0646 100.333 22.3767C100.631 22.9137 100.75 23.532 100.648 24.1233C100.646 24.1372 100.637 24.1485 100.625 24.1545L100.607 24.1592H98.9966C97.7652 24.1592 96.9133 22.8989 97.2899 21.7008L97.335 21.5727L99.1964 16.8069C99.7093 15.4936 100.829 14.5715 102.134 14.3303C102.333 14.2894 102.538 14.2656 102.749 14.2656L102.768 14.266L102.788 14.2666L102.792 14.2665L102.8 14.2661ZM130.349 7.96557C128.277 8.05097 126.434 9.3356 125.645 11.2664L120.61 23.9702L120.6 24.0117C120.594 24.0942 120.662 24.1691 120.751 24.1656C122.823 24.0802 124.666 22.7955 125.455 20.8646L130.49 8.16089L130.5 8.11936C130.506 8.0369 130.438 7.96206 130.349 7.96557ZM115.4 7.96738L115.451 7.96729L115.503 7.9818C117.023 8.64673 117.772 10.3978 117.246 11.9828L117.184 12.1519L116.271 14.4655C116.518 14.4281 116.767 14.4087 117.014 14.4087C119.641 14.4087 121.16 16.5929 120.407 19.2871C119.654 21.9814 116.913 24.1656 114.286 24.1656C111.659 24.1656 110.14 21.9814 110.893 19.2871C110.942 19.1132 110.999 18.9415 111.063 18.7723L111.166 18.5206L115.244 8.09203C115.271 8.0222 115.332 7.97676 115.4 7.96738ZM134.114 14.2656C131.487 14.2656 128.746 16.4818 127.993 19.2156C127.24 21.9493 128.759 24.1656 131.386 24.1656C133.366 24.1656 135.41 22.9064 136.62 21.1158L136.534 21.1154C136.278 21.114 135.488 21.1096 134.771 21.1026C134.106 21.0962 133.44 21.168 132.8 21.3589C132.58 21.4249 132.355 21.4605 132.131 21.4605C131.289 21.4605 130.699 20.9588 130.545 20.227C130.507 20.049 130.633 19.879 130.808 19.879L136.788 19.8779L136.89 19.8701C137.158 19.8292 137.383 19.6304 137.467 19.3553C137.481 19.3089 137.494 19.2623 137.507 19.2156C138.26 16.4818 136.741 14.2656 134.114 14.2656ZM90.4993 9.49917C92.1023 8.18477 93.806 7.96558 95.129 7.96558C95.8386 7.96558 97.1507 8.02996 98.0266 8.75523C98.1154 8.82879 98.1222 8.96077 98.0547 9.04787L98.0148 9.08721L96.6593 10.1076C95.9338 10.6537 95.0661 10.949 94.1707 10.9856L93.9259 10.9891L93.9045 10.989C93.4564 10.989 92.9656 11.1423 92.5482 11.4929C92.0545 11.8872 91.793 12.4413 91.6101 12.8676L91.5519 13.0045L90.9976 14.3848H93.0437C93.0933 14.3848 93.1302 14.4262 93.1309 14.473L93.1243 14.5085L92.879 15.1209C92.4055 16.3027 91.3135 17.0928 90.0811 17.1622L89.9042 17.1672L88.4385 20.8338C87.6761 22.741 85.9271 24.0244 83.9448 24.165C83.7939 24.1757 83.6807 24.0361 83.7028 23.8913L83.7176 23.8371L87.9613 13.1799C88.4396 11.9968 89.1706 10.5946 90.4993 9.49917ZM116.221 17.4856C116.994 17.6019 117.331 18.4394 116.974 19.356C116.616 20.2727 115.699 20.9213 114.926 20.8049C114.152 20.6886 113.815 19.8511 114.173 18.9345C114.511 18.0688 115.347 17.4421 116.091 17.4732C116.135 17.475 116.178 17.4792 116.221 17.4856ZM135.128 18.0173C135.104 17.1279 134.484 16.4827 133.541 16.4827C132.621 16.4827 131.672 17.097 131.149 17.9524C131.102 18.0289 131.142 18.1258 131.219 18.1519L131.26 18.1587H134.998C135.072 18.1587 135.13 18.0942 135.128 18.0173Z" fill="white"/>
</g>
<path d="M65.0498 14.606H65.9354L63.3434 20.6C62.9438 21.518 62.3714 21.9284 61.5614 21.9284C61.2914 21.9284 61.0214 21.896 60.7514 21.8204V21.1184C61.0214 21.1508 61.2374 21.1724 61.3886 21.1724C61.9394 21.1724 62.3066 20.9672 62.5766 20.33L62.8574 19.7036L60.6758 14.606H61.5722L63.311 18.7964L65.0498 14.606Z" fill="white"/>
<path d="M59.9728 17.2412C59.9728 18.7856 58.8604 19.9844 57.3808 19.9844C56.56 19.9844 55.7824 19.628 55.3828 19.034V19.8656H54.6052V11.7656H55.4368V15.3728C55.858 14.822 56.5816 14.4872 57.37 14.4872C58.8496 14.4872 59.9728 15.6968 59.9728 17.2412ZM59.1196 17.2304C59.1196 16.0964 58.3204 15.254 57.2512 15.254C56.2792 15.254 55.426 15.902 55.426 17.2412C55.426 18.5696 56.3116 19.2176 57.2512 19.2176C58.3204 19.2176 59.1196 18.3644 59.1196 17.2304Z" fill="white"/>
<path d="M48.9231 11.7656H49.7547V19.8656H48.9663V19.034C48.5667 19.628 47.7999 19.9844 46.9791 19.9844C45.4995 19.9844 44.3763 18.7856 44.3763 17.2412C44.3763 15.6968 45.4995 14.4872 46.9791 14.4872C47.7675 14.4872 48.5019 14.822 48.9231 15.3836V11.7656ZM48.9339 17.2412C48.9339 15.902 48.0483 15.254 47.0979 15.254C46.0287 15.254 45.2295 16.0964 45.2295 17.2304C45.2295 18.3644 46.0287 19.2176 47.0979 19.2176C48.0483 19.2176 48.9339 18.5696 48.9339 17.2412Z" fill="white"/>
<path d="M43.2284 17.4897H39.0704C39.1676 18.5265 39.9668 19.2177 41.0036 19.2177C41.5976 19.2177 42.1376 18.9801 42.6128 18.5049L43.0988 19.0665C42.548 19.6389 41.8244 19.9845 40.9928 19.9845C39.4268 19.9845 38.2064 18.7857 38.2064 17.2413C38.2064 15.7185 39.3944 14.4873 40.8956 14.4873C42.2564 14.4873 43.2932 15.4701 43.2932 16.8633C43.2932 17.0685 43.2716 17.2737 43.2284 17.4897ZM39.1028 16.7553H42.44C42.4292 15.8157 41.7488 15.2433 40.874 15.2433C39.9992 15.2433 39.2864 15.8481 39.1028 16.7553Z" fill="white"/>
<path d="M37.5742 14.6059V15.3403H37.261C36.3754 15.3403 35.6086 15.9127 35.6086 16.8847V19.8655H34.777V14.6059H35.5546V15.3511C35.9326 14.8435 36.5482 14.5627 37.1854 14.5627C37.3042 14.5627 37.4338 14.5735 37.5742 14.6059Z" fill="white"/>
<path d="M33.2511 17.4897H29.0931C29.1903 18.5265 29.9895 19.2177 31.0263 19.2177C31.6203 19.2177 32.1603 18.9801 32.6355 18.5049L33.1215 19.0665C32.5707 19.6389 31.8471 19.9845 31.0155 19.9845C29.4495 19.9845 28.2291 18.7857 28.2291 17.2413C28.2291 15.7185 29.4171 14.4873 30.9183 14.4873C32.2791 14.4873 33.3159 15.4701 33.3159 16.8633C33.3159 17.0685 33.2943 17.2737 33.2511 17.4897ZM29.1255 16.7553H32.4627C32.4519 15.8157 31.7715 15.2433 30.8967 15.2433C30.0219 15.2433 29.3091 15.8481 29.1255 16.7553Z" fill="white"/>
<path d="M26.7273 14.6061H27.6129L25.3989 19.9845H25.0965L23.3037 16.0101L21.5217 19.9845H21.2301L18.9945 14.6061H19.8801L21.4029 18.5049L23.1525 14.4873H23.4657L25.2369 18.4725L26.7273 14.6061Z" fill="white"/>
<path d="M12.8729 17.2304C12.8405 15.7292 14.1257 14.4548 15.6269 14.4872C17.1281 14.4656 18.4133 15.7292 18.3809 17.2304C18.4133 18.71 17.1173 20.006 15.6161 19.9736C14.1149 20.006 12.8513 18.71 12.8729 17.2304ZM17.5277 17.2412C17.5277 16.1072 16.6961 15.254 15.6269 15.254C14.5469 15.254 13.7261 16.1072 13.7261 17.2412C13.7261 18.3428 14.5469 19.2068 15.6161 19.2068C16.6853 19.2068 17.5277 18.3428 17.5277 17.2412Z" fill="white"/>
<path d="M7.28284 19.8655V12.7375H9.78844C11.1708 12.7375 12.0672 13.6015 12.0672 14.8003C12.0672 16.0207 11.1708 16.8847 9.78844 16.8847H8.12524V19.8655H7.28284ZM8.12524 16.1287H9.76684C10.674 16.1287 11.1924 15.5995 11.1924 14.8111C11.1924 14.0335 10.674 13.4935 9.76684 13.4935H8.12524V16.1287Z" fill="white"/>
</svg>
